<?xml version="1.0" encoding="utf-8"?>
<!-- Generator: Adobe Illustrator 17.0.0, SVG Export Plug-In . SVG Version: 6.00 Build 0)  -->
<!DOCTYPE svg PUBLIC "-//W3C//DTD SVG 1.1//EN" "http://www.w3.org/Graphics/SVG/1.1/DTD/svg11.dtd">
<svg version="1.1" id="Capa_1" xmlns="http://www.w3.org/2000/svg" xmlns:xlink="http://www.w3.org/1999/xlink" x="0px" y="0px"
	 width="400px" height="400px" viewBox="0 0 400 400" enable-background="new 0 0 400 400" xml:space="preserve">
<g id="Moon">
	<g>
		<path fill="#FFFFFF" stroke="#FFFFFF" d="M395.325,242.263c-2.288-1.863-5.087-2.8-7.912-2.8c-2.1,0-4.212,0.525-6.125,1.588
			c-23.525,13.125-50.625,20.625-79.487,20.625c-90.3,0-163.475-73.175-163.475-163.475c0-28.862,7.5-55.975,20.625-79.5
			c2.5-4.487,2.025-10.05-1.213-14.037c-2.413-3-6.025-4.662-9.762-4.662c-1.238,0-2.488,0.188-3.7,0.562
			C60.85,26.263,0,103.887,0,195.663C0,308.337,91.675,400,204.35,400c91.762,0,169.4-60.85,195.088-144.263
			C400.95,250.825,399.325,245.488,395.325,242.263z M204.35,362.5c-92,0-166.85-74.837-166.85-166.837
			c0-53.813,25.35-102.525,66.55-133.288c-2.138,11.788-3.225,23.788-3.225,35.825c0,110.813,90.15,200.975,200.975,200.975
			c12.05,0,24.038-1.088,35.825-3.225C306.862,337.163,258.163,362.5,204.35,362.5z"/>
	</g>
</g>
</svg>
