<?xml version="1.0" encoding="utf-8"?>
<!-- Generator: Adobe Illustrator 17.0.0, SVG Export Plug-In . SVG Version: 6.00 Build 0)  -->
<!DOCTYPE svg PUBLIC "-//W3C//DTD SVG 1.1//EN" "http://www.w3.org/Graphics/SVG/1.1/DTD/svg11.dtd">
<svg version="1.1" id="Capa_1" xmlns="http://www.w3.org/2000/svg" xmlns:xlink="http://www.w3.org/1999/xlink" x="0px" y="0px"
	 width="400px" height="400px" viewBox="0 0 400 400" enable-background="new 0 0 400 400" xml:space="preserve">
<g id="Sun">
	<g>
		<path fill="#FFFFFF" d="M68.571,200c0-9.463-7.68-17.143-17.143-17.143H17.143C7.68,182.857,0,190.537,0,200
			s7.68,17.143,17.143,17.143h34.286C60.891,217.143,68.571,209.463,68.571,200z M85.714,297.143c-4.731,0-9.017,1.92-12.126,5.017
			l-22.857,22.857c-3.097,3.109-5.017,7.394-5.017,12.126c0,9.463,7.669,17.143,17.143,17.143c4.731,0,9.017-1.92,12.114-5.029
			L97.829,326.4c3.109-3.097,5.029-7.383,5.029-12.114C102.857,304.823,95.189,297.143,85.714,297.143z M200,68.571
			c9.474,0,17.143-7.68,17.143-17.143V17.143C217.143,7.68,209.474,0,200,0s-17.143,7.68-17.143,17.143v34.286
			C182.857,60.891,190.526,68.571,200,68.571z M314.286,102.857c4.731,0,9.017-1.92,12.114-5.017l22.857-22.857
			c3.109-3.109,5.029-7.394,5.029-12.126c0-9.463-7.669-17.143-17.143-17.143c-4.731,0-9.017,1.92-12.126,5.029L302.16,73.6
			c-3.097,3.097-5.017,7.383-5.017,12.114C297.143,95.177,304.811,102.857,314.286,102.857z M73.589,97.84
			c3.109,3.097,7.394,5.017,12.126,5.017c9.463,0,17.143-7.68,17.143-17.143c0-4.731-1.92-9.017-5.017-12.126L74.983,50.731
			c-3.109-3.097-7.394-5.017-12.126-5.017c-9.463,0-17.143,7.68-17.143,17.143c0,4.731,1.92,9.017,5.017,12.114L73.589,97.84z
			 M382.857,182.857h-34.286c-9.463,0-17.143,7.68-17.143,17.143s7.68,17.143,17.143,17.143h34.286
			c9.463,0,17.143-7.68,17.143-17.143S392.32,182.857,382.857,182.857z M326.411,302.16c-3.109-3.097-7.394-5.017-12.126-5.017
			c-9.463,0-17.143,7.68-17.143,17.143c0,4.731,1.92,9.017,5.017,12.114l22.857,22.857c3.109,3.109,7.394,5.029,12.126,5.029
			c9.463,0,17.143-7.68,17.143-17.143c0-4.731-1.92-9.017-5.017-12.126L326.411,302.16z M200,331.429
			c-9.474,0-17.143,7.68-17.143,17.143v34.286c0,9.463,7.669,17.143,17.143,17.143s17.143-7.68,17.143-17.143v-34.286
			C217.143,339.109,209.474,331.429,200,331.429z M200,80c-66.171,0-120,53.829-120,120s53.829,120,120,120s120-53.829,120-120
			S266.171,80,200,80z M200,285.714c-47.269,0-85.714-38.446-85.714-85.714s38.446-85.714,85.714-85.714
			s85.714,38.446,85.714,85.714S247.269,285.714,200,285.714z"/>
	</g>
</g>
</svg>
